solid OpenSCAD_Model
  facet normal -1 0 0
    outer loop
      vertex 0 93 0
      vertex 0 155 2
      vertex 0 155 0
    endloop
  endfacet
  facet normal -1 -0 0
    outer loop
      vertex 0 155 2
      vertex 0 93 0
      vertex 0 93 2
    endloop
  endfacet
  facet normal -0 0 1
    outer loop
      vertex 7.25 149.5 2
      vertex 87.5 98.5 2
      vertex 87.5 149.5 2
    endloop
  endfacet
  facet normal 0 0 1
    outer loop
      vertex 87.5 98.5 2
      vertex 7.25 149.5 2
      vertex 7.25 98.5 2
    endloop
  endfacet
  facet normal 0 0 1
    outer loop
      vertex 95.5 155 2
      vertex 89.5 151.5 2
      vertex 95.5 93 2
    endloop
  endfacet
  facet normal -0 0 1
    outer loop
      vertex 0 155 2
      vertex 89.5 151.5 2
      vertex 95.5 155 2
    endloop
  endfacet
  facet normal 0 0 1
    outer loop
      vertex 89.5 151.5 2
      vertex 0 155 2
      vertex 5.25 151.5 2
    endloop
  endfacet
  facet normal 0 0 1
    outer loop
      vertex 3.5 151.5 2
      vertex 0 155 2
      vertex 3.5 96.5 2
    endloop
  endfacet
  facet normal 0 0 1
    outer loop
      vertex 5.25 151.5 2
      vertex 0 155 2
      vertex 3.5 151.5 2
    endloop
  endfacet
  facet normal -0 0 1
    outer loop
      vertex 89.5 96.5 2
      vertex 95.5 93 2
      vertex 89.5 151.5 2
    endloop
  endfacet
  facet normal 0 0 1
    outer loop
      vertex 0 93 2
      vertex 89.5 96.5 2
      vertex 5.25 96.5 2
    endloop
  endfacet
  facet normal 0 0 1
    outer loop
      vertex 0 93 2
      vertex 5.25 96.5 2
      vertex 3.5 96.5 2
    endloop
  endfacet
  facet normal 0 0 1
    outer loop
      vertex 89.5 96.5 2
      vertex 0 93 2
      vertex 95.5 93 2
    endloop
  endfacet
  facet normal 0 0 1
    outer loop
      vertex 0 93 2
      vertex 3.5 96.5 2
      vertex 0 155 2
    endloop
  endfacet
  facet normal 1 -0 0
    outer loop
      vertex 95.5 93 2
      vertex 95.5 155 0
      vertex 95.5 155 2
    endloop
  endfacet
  facet normal 1 0 0
    outer loop
      vertex 95.5 155 0
      vertex 95.5 93 2
      vertex 95.5 93 0
    endloop
  endfacet
  facet normal 0 -1 0
    outer loop
      vertex 0 93 0
      vertex 95.5 93 2
      vertex 0 93 2
    endloop
  endfacet
  facet normal 0 -1 -0
    outer loop
      vertex 95.5 93 2
      vertex 0 93 0
      vertex 95.5 93 0
    endloop
  endfacet
  facet normal 0 0 -1
    outer loop
      vertex 95.5 93 0
      vertex 5.25 96.5 0
      vertex 95.5 155 0
    endloop
  endfacet
  facet normal 0 0 -1
    outer loop
      vertex 0 93 0
      vertex 5.25 96.5 0
      vertex 95.5 93 0
    endloop
  endfacet
  facet normal -0 0 -1
    outer loop
      vertex 3.5 96.5 0
      vertex 0 93 0
      vertex 3.5 151.5 0
    endloop
  endfacet
  facet normal -0 0 -1
    outer loop
      vertex 5.25 96.5 0
      vertex 0 93 0
      vertex 3.5 96.5 0
    endloop
  endfacet
  facet normal 0 0 -1
    outer loop
      vertex 5.25 151.5 0
      vertex 95.5 155 0
      vertex 5.25 96.5 0
    endloop
  endfacet
  facet normal 0 0 -1
    outer loop
      vertex 0 155 0
      vertex 5.25 151.5 0
      vertex 3.5 151.5 0
    endloop
  endfacet
  facet normal 0 0 -1
    outer loop
      vertex 5.25 151.5 0
      vertex 0 155 0
      vertex 95.5 155 0
    endloop
  endfacet
  facet normal 0 0 -1
    outer loop
      vertex 0 155 0
      vertex 3.5 151.5 0
      vertex 0 93 0
    endloop
  endfacet
  facet normal 0 1 -0
    outer loop
      vertex 95.5 155 0
      vertex 0 155 2
      vertex 95.5 155 2
    endloop
  endfacet
  facet normal 0 1 0
    outer loop
      vertex 0 155 2
      vertex 95.5 155 0
      vertex 0 155 0
    endloop
  endfacet
  facet normal 1 -0 0
    outer loop
      vertex 3.5 96.5 2
      vertex 3.5 151.5 0
      vertex 3.5 151.5 2
    endloop
  endfacet
  facet normal 1 0 0
    outer loop
      vertex 3.5 151.5 0
      vertex 3.5 96.5 2
      vertex 3.5 96.5 0
    endloop
  endfacet
  facet normal -1 0 0
    outer loop
      vertex 5.25 96.5 0
      vertex 5.25 151.5 2
      vertex 5.25 151.5 0
    endloop
  endfacet
  facet normal -1 -0 0
    outer loop
      vertex 5.25 151.5 2
      vertex 5.25 96.5 0
      vertex 5.25 96.5 2
    endloop
  endfacet
  facet normal 0 -1 0
    outer loop
      vertex 3.5 151.5 0
      vertex 5.25 151.5 2
      vertex 3.5 151.5 2
    endloop
  endfacet
  facet normal 0 -1 -0
    outer loop
      vertex 5.25 151.5 2
      vertex 3.5 151.5 0
      vertex 5.25 151.5 0
    endloop
  endfacet
  facet normal 0 1 -0
    outer loop
      vertex 5.25 96.5 0
      vertex 3.5 96.5 2
      vertex 5.25 96.5 2
    endloop
  endfacet
  facet normal 0 1 0
    outer loop
      vertex 3.5 96.5 2
      vertex 5.25 96.5 0
      vertex 3.5 96.5 0
    endloop
  endfacet
  facet normal -1 0 0
    outer loop
      vertex 5.25 96.5 2
      vertex 5.25 151.5 6
      vertex 5.25 151.5 2
    endloop
  endfacet
  facet normal -1 -0 0
    outer loop
      vertex 5.25 151.5 6
      vertex 5.25 96.5 2
      vertex 5.25 96.5 6
    endloop
  endfacet
  facet normal 0 0 1
    outer loop
      vertex 89.5 151.5 6
      vertex 87.5 149.5 6
      vertex 89.5 96.5 6
    endloop
  endfacet
  facet normal 0 0 1
    outer loop
      vertex 89.5 151.5 6
      vertex 7.25 149.5 6
      vertex 87.5 149.5 6
    endloop
  endfacet
  facet normal 0 0 1
    outer loop
      vertex 7.25 149.5 6
      vertex 5.25 151.5 6
      vertex 7.25 98.5 6
    endloop
  endfacet
  facet normal -0 0 1
    outer loop
      vertex 5.25 151.5 6
      vertex 7.25 149.5 6
      vertex 89.5 151.5 6
    endloop
  endfacet
  facet normal -0 0 1
    outer loop
      vertex 87.5 98.5 6
      vertex 89.5 96.5 6
      vertex 87.5 149.5 6
    endloop
  endfacet
  facet normal -0 0 1
    outer loop
      vertex 7.25 98.5 6
      vertex 89.5 96.5 6
      vertex 87.5 98.5 6
    endloop
  endfacet
  facet normal 0 0 1
    outer loop
      vertex 7.25 98.5 6
      vertex 5.25 96.5 6
      vertex 89.5 96.5 6
    endloop
  endfacet
  facet normal 0 0 1
    outer loop
      vertex 5.25 96.5 6
      vertex 7.25 98.5 6
      vertex 5.25 151.5 6
    endloop
  endfacet
  facet normal 1 -0 0
    outer loop
      vertex 89.5 96.5 6
      vertex 89.5 151.5 2
      vertex 89.5 151.5 6
    endloop
  endfacet
  facet normal 1 0 0
    outer loop
      vertex 89.5 151.5 2
      vertex 89.5 96.5 6
      vertex 89.5 96.5 2
    endloop
  endfacet
  facet normal 0 1 -0
    outer loop
      vertex 89.5 151.5 2
      vertex 5.25 151.5 6
      vertex 89.5 151.5 6
    endloop
  endfacet
  facet normal 0 1 0
    outer loop
      vertex 5.25 151.5 6
      vertex 89.5 151.5 2
      vertex 5.25 151.5 2
    endloop
  endfacet
  facet normal 0 -1 0
    outer loop
      vertex 5.25 96.5 2
      vertex 89.5 96.5 6
      vertex 5.25 96.5 6
    endloop
  endfacet
  facet normal 0 -1 -0
    outer loop
      vertex 89.5 96.5 6
      vertex 5.25 96.5 2
      vertex 89.5 96.5 2
    endloop
  endfacet
  facet normal -1 0 0
    outer loop
      vertex 87.5 98.5 2
      vertex 87.5 149.5 6
      vertex 87.5 149.5 2
    endloop
  endfacet
  facet normal -1 -0 0
    outer loop
      vertex 87.5 149.5 6
      vertex 87.5 98.5 2
      vertex 87.5 98.5 6
    endloop
  endfacet
  facet normal 0 -1 0
    outer loop
      vertex 7.25 149.5 2
      vertex 87.5 149.5 6
      vertex 7.25 149.5 6
    endloop
  endfacet
  facet normal 0 -1 -0
    outer loop
      vertex 87.5 149.5 6
      vertex 7.25 149.5 2
      vertex 87.5 149.5 2
    endloop
  endfacet
  facet normal 0 1 -0
    outer loop
      vertex 87.5 98.5 2
      vertex 7.25 98.5 6
      vertex 87.5 98.5 6
    endloop
  endfacet
  facet normal 0 1 0
    outer loop
      vertex 7.25 98.5 6
      vertex 87.5 98.5 2
      vertex 7.25 98.5 2
    endloop
  endfacet
  facet normal 1 -0 0
    outer loop
      vertex 7.25 98.5 6
      vertex 7.25 149.5 2
      vertex 7.25 149.5 6
    endloop
  endfacet
  facet normal 1 0 0
    outer loop
      vertex 7.25 149.5 2
      vertex 7.25 98.5 6
      vertex 7.25 98.5 2
    endloop
  endfacet
endsolid OpenSCAD_Model
